<svg width="135" height="63" viewBox="0 0 135 63" fill="none" xmlns="http://www.w3.org/2000/svg">
<rect y="8" width="135" height="55" rx="27.5" fill="#832CFF" fill-opacity="0.15"/>
<rect width="135" height="52" rx="26" fill="#7B56FF"/>
<path d="M38 19V33M31 26H45" stroke="white" stroke-width="2" stroke-linecap="round" stroke-linejoin="round"/>
<path d="M59.3672 31.5V20.2266H66.75V22.1719H61.7266V25.1953H66.3125V27.0625H61.7266V31.5H59.3672ZM72.2834 31.6797C71.4032 31.6797 70.6454 31.5026 70.01 31.1484C69.3746 30.7891 68.8876 30.276 68.5491 29.6094C68.2105 28.9375 68.0413 28.1354 68.0413 27.2031V27.1875C68.0413 26.2604 68.2131 25.4635 68.5569 24.7969C68.9006 24.1302 69.3876 23.6172 70.0178 23.2578C70.6532 22.8932 71.4084 22.7109 72.2834 22.7109C73.1584 22.7109 73.911 22.8906 74.5413 23.25C75.1767 23.6094 75.6663 24.125 76.01 24.7969C76.3538 25.4635 76.5256 26.2604 76.5256 27.1875V27.2031C76.5256 28.1354 76.3564 28.9375 76.0178 29.6094C75.6793 30.276 75.1923 30.7891 74.5569 31.1484C73.9267 31.5026 73.1689 31.6797 72.2834 31.6797ZM72.2834 29.8906C72.6897 29.8906 73.0334 29.7839 73.3147 29.5703C73.5959 29.3568 73.8121 29.0495 73.9631 28.6484C74.1142 28.2474 74.1897 27.7656 74.1897 27.2031V27.1875C74.1897 26.625 74.1142 26.1458 73.9631 25.75C73.8121 25.349 73.5933 25.0417 73.3069 24.8281C73.0256 24.6094 72.6845 24.5 72.2834 24.5C71.8824 24.5 71.5386 24.6094 71.2522 24.8281C70.9709 25.0417 70.7548 25.349 70.6038 25.75C70.4527 26.1458 70.3772 26.625 70.3772 27.1875V27.2031C70.3772 27.7708 70.4501 28.2552 70.5959 28.6562C70.747 29.0573 70.9631 29.3646 71.2444 29.5781C71.5308 29.7865 71.8772 29.8906 72.2834 29.8906ZM78.2231 31.5V19.6094H80.5044V31.5H78.2231ZM82.7019 31.5V19.6094H84.9831V31.5H82.7019ZM90.9228 31.6797C90.0426 31.6797 89.2848 31.5026 88.6494 31.1484C88.014 30.7891 87.527 30.276 87.1884 29.6094C86.8499 28.9375 86.6806 28.1354 86.6806 27.2031V27.1875C86.6806 26.2604 86.8525 25.4635 87.1963 24.7969C87.54 24.1302 88.027 23.6172 88.6572 23.2578C89.2926 22.8932 90.0478 22.7109 90.9228 22.7109C91.7978 22.7109 92.5504 22.8906 93.1806 23.25C93.816 23.6094 94.3056 24.125 94.6494 24.7969C94.9931 25.4635 95.165 26.2604 95.165 27.1875V27.2031C95.165 28.1354 94.9957 28.9375 94.6572 29.6094C94.3186 30.276 93.8317 30.7891 93.1963 31.1484C92.566 31.5026 91.8082 31.6797 90.9228 31.6797ZM90.9228 29.8906C91.3291 29.8906 91.6728 29.7839 91.9541 29.5703C92.2353 29.3568 92.4515 29.0495 92.6025 28.6484C92.7535 28.2474 92.8291 27.7656 92.8291 27.2031V27.1875C92.8291 26.625 92.7535 26.1458 92.6025 25.75C92.4515 25.349 92.2327 25.0417 91.9463 24.8281C91.665 24.6094 91.3239 24.5 90.9228 24.5C90.5218 24.5 90.178 24.6094 89.8916 24.8281C89.6103 25.0417 89.3942 25.349 89.2431 25.75C89.0921 26.1458 89.0166 26.625 89.0166 27.1875V27.2031C89.0166 27.7708 89.0895 28.2552 89.2353 28.6562C89.3864 29.0573 89.6025 29.3646 89.8838 29.5781C90.1702 29.7865 90.5166 29.8906 90.9228 29.8906ZM98.0578 31.5L95.7609 22.8984H98.0656L99.3469 29.125H99.4875L100.995 22.8984H103.167L104.683 29.125H104.823L106.105 22.8984H108.362L106.073 31.5H103.652L102.112 25.5H101.972L100.448 31.5H98.0578Z" fill="white"/>
</svg>
