<svg width="77" height="89" viewBox="0 0 77 89" fill="none" xmlns="http://www.w3.org/2000/svg">
<rect y="34" width="77" height="55" rx="27.5" fill="#832CFF" fill-opacity="0.15"/>
<rect width="77" height="77" rx="27" fill="#7B56FF"/>
<path d="M27 16.5C21.201 16.5 16.5 21.201 16.5 27V28.5C16.5 29.3285 17.1716 30 18 30C18.8284 30 19.5 29.3285 19.5 28.5V27C19.5 22.8579 22.8579 19.5 27 19.5H28.5C29.3285 19.5 30 18.8284 30 18C30 17.1716 29.3285 16.5 28.5 16.5H27ZM49.5 16.5C48.6716 16.5 48 17.1716 48 18C48 18.8284 48.6716 19.5 49.5 19.5H51C55.1421 19.5 58.5 22.8579 58.5 27V28.5C58.5 29.3285 59.1716 30 60 30C60.8284 30 61.5 29.3285 61.5 28.5V27C61.5 21.201 56.799 16.5 51 16.5H49.5ZM19.5 49.5C19.5 48.6716 18.8284 48 18 48C17.1716 48 16.5 48.6716 16.5 49.5V51C16.5 56.799 21.201 61.5 27 61.5H28.5C29.3285 61.5 30 60.8284 30 60C30 59.1716 29.3285 58.5 28.5 58.5H27C22.8579 58.5 19.5 55.1421 19.5 51V49.5ZM61.5 49.5C61.5 48.6716 60.8284 48 60 48C59.1716 48 58.5 48.6716 58.5 49.5V51C58.5 55.1421 55.1421 58.5 51 58.5H49.5C48.6716 58.5 48 59.1716 48 60C48 60.8284 48.6716 61.5 49.5 61.5H51C56.799 61.5 61.5 56.799 61.5 51V49.5Z" fill="white"/>
<path fill-rule="evenodd" clip-rule="evenodd" d="M31.7143 24.75C27.868 24.75 24.75 27.868 24.75 31.7143V46.2857C24.75 50.1319 27.868 53.25 31.7143 53.25H46.2857C50.1319 53.25 53.25 50.1319 53.25 46.2857V31.7143C53.25 27.868 50.1319 24.75 46.2857 24.75H31.7143ZM50.2478 31.5803H27.7523C27.8228 29.4529 29.5697 27.75 31.7143 27.75H46.2857C48.4303 27.75 50.1772 29.4529 50.2478 31.5803ZM27.75 34.5803H50.25V46.2857C50.25 48.4751 48.4751 50.25 46.2857 50.25H31.7143C29.5249 50.25 27.75 48.4751 27.75 46.2857V34.5803Z" fill="white"/>
</svg>
