<svg width="20" height="21" viewBox="0 0 20 21" fill="none" xmlns="http://www.w3.org/2000/svg">
<path d="M1.66699 10.5H18.3337M1.66699 10.5C1.66699 15.1024 5.39795 18.8333 10.0003 18.8333M1.66699 10.5C1.66699 5.89762 5.39795 2.16666 10.0003 2.16666M18.3337 10.5C18.3337 15.1024 14.6027 18.8333 10.0003 18.8333M18.3337 10.5C18.3337 5.89762 14.6027 2.16666 10.0003 2.16666M10.0003 2.16666C12.0847 4.44862 13.2693 7.41002 13.3337 10.5C13.2693 13.59 12.0847 16.5514 10.0003 18.8333M10.0003 2.16666C7.91593 4.44862 6.73136 7.41002 6.66699 10.5C6.73136 13.59 7.91593 16.5514 10.0003 18.8333" stroke="white" stroke-opacity="0.5" stroke-width="1.66667" stroke-linecap="round" stroke-linejoin="round"/>
</svg>
