<svg width="170" height="63" viewBox="0 0 170 63" fill="none" xmlns="http://www.w3.org/2000/svg">
<rect y="8" width="170" height="55" rx="27.5" fill="#832CFF" fill-opacity="0.15"/>
<rect width="170" height="52" rx="26" fill="#7B56FF"/>
<path d="M32.1562 31.7891C31.0677 31.7891 30.1276 31.5495 29.3359 31.0703C28.5443 30.5911 27.9349 29.9089 27.5078 29.0234C27.0807 28.138 26.8672 27.0859 26.8672 25.8672V25.8516C26.8672 24.6328 27.0807 23.5807 27.5078 22.6953C27.9349 21.8099 28.5417 21.1302 29.3281 20.6562C30.1198 20.1771 31.0625 19.9375 32.1562 19.9375C33.0469 19.9375 33.8464 20.112 34.5547 20.4609C35.2682 20.8099 35.8438 21.2917 36.2812 21.9062C36.7188 22.5208 36.974 23.224 37.0469 24.0156V24.1172H34.7578L34.75 24.0625C34.6719 23.6406 34.513 23.2708 34.2734 22.9531C34.0339 22.6302 33.7318 22.3802 33.3672 22.2031C33.0078 22.026 32.6042 21.9375 32.1562 21.9375C31.5677 21.9375 31.0573 22.0964 30.625 22.4141C30.1927 22.7266 29.8594 23.1771 29.625 23.7656C29.3958 24.349 29.2812 25.0443 29.2812 25.8516V25.8672C29.2812 26.6693 29.3958 27.3646 29.625 27.9531C29.8594 28.5417 30.1927 28.9948 30.625 29.3125C31.0573 29.6302 31.5703 29.7891 32.1641 29.7891C32.6172 29.7891 33.0208 29.7083 33.375 29.5469C33.7344 29.3802 34.0312 29.1484 34.2656 28.8516C34.5052 28.5495 34.6641 28.1979 34.7422 27.7969L34.7578 27.7266H37.0547V27.8203C36.9714 28.6068 36.7135 29.2969 36.2812 29.8906C35.849 30.4844 35.2812 30.9505 34.5781 31.2891C33.875 31.6224 33.0677 31.7891 32.1562 31.7891ZM42.5803 31.6797C41.7001 31.6797 40.9423 31.5026 40.3069 31.1484C39.6715 30.7891 39.1845 30.276 38.8459 29.6094C38.5074 28.9375 38.3381 28.1354 38.3381 27.2031V27.1875C38.3381 26.2604 38.51 25.4635 38.8538 24.7969C39.1975 24.1302 39.6845 23.6172 40.3147 23.2578C40.9501 22.8932 41.7053 22.7109 42.5803 22.7109C43.4553 22.7109 44.2079 22.8906 44.8381 23.25C45.4735 23.6094 45.9631 24.125 46.3069 24.7969C46.6506 25.4635 46.8225 26.2604 46.8225 27.1875V27.2031C46.8225 28.1354 46.6532 28.9375 46.3147 29.6094C45.9761 30.276 45.4892 30.7891 44.8538 31.1484C44.2235 31.5026 43.4657 31.6797 42.5803 31.6797ZM42.5803 29.8906C42.9866 29.8906 43.3303 29.7839 43.6116 29.5703C43.8928 29.3568 44.109 29.0495 44.26 28.6484C44.411 28.2474 44.4866 27.7656 44.4866 27.2031V27.1875C44.4866 26.625 44.411 26.1458 44.26 25.75C44.109 25.349 43.8902 25.0417 43.6038 24.8281C43.3225 24.6094 42.9814 24.5 42.5803 24.5C42.1793 24.5 41.8355 24.6094 41.5491 24.8281C41.2678 25.0417 41.0517 25.349 40.9006 25.75C40.7496 26.1458 40.6741 26.625 40.6741 27.1875V27.2031C40.6741 27.7708 40.747 28.2552 40.8928 28.6562C41.0439 29.0573 41.26 29.3646 41.5413 29.5781C41.8277 29.7865 42.1741 29.8906 42.5803 29.8906ZM48.4419 31.5V22.8984H50.7231V24.2266H50.8638C51.0617 23.7578 51.369 23.388 51.7856 23.1172C52.2023 22.8464 52.7179 22.7109 53.3325 22.7109C54.2908 22.7109 55.02 22.9922 55.52 23.5547C56.0252 24.112 56.2778 24.9062 56.2778 25.9375V31.5H53.9966V26.4531C53.9966 25.8438 53.869 25.3828 53.6138 25.0703C53.3585 24.7578 52.9601 24.6016 52.4184 24.6016C52.0695 24.6016 51.7674 24.6823 51.5122 24.8438C51.2622 25 51.0669 25.2214 50.9263 25.5078C50.7908 25.7943 50.7231 26.1328 50.7231 26.5234V31.5H48.4419ZM58.2488 31.5V22.8984H60.53V24.2266H60.6706C60.8685 23.7578 61.1758 23.388 61.5925 23.1172C62.0092 22.8464 62.5248 22.7109 63.1394 22.7109C64.0977 22.7109 64.8269 22.9922 65.3269 23.5547C65.8321 24.112 66.0847 24.9062 66.0847 25.9375V31.5H63.8034V26.4531C63.8034 25.8438 63.6758 25.3828 63.4206 25.0703C63.1654 24.7578 62.767 24.6016 62.2253 24.6016C61.8764 24.6016 61.5743 24.6823 61.3191 24.8438C61.0691 25 60.8738 25.2214 60.7331 25.5078C60.5977 25.7943 60.53 26.1328 60.53 26.5234V31.5H58.2488ZM71.8369 31.6797C70.9671 31.6797 70.2171 31.5 69.5869 31.1406C68.9619 30.776 68.4801 30.2604 68.1416 29.5938C67.803 28.9271 67.6338 28.1328 67.6338 27.2109V27.2031C67.6338 26.2917 67.8004 25.5 68.1338 24.8281C68.4723 24.1562 68.9489 23.6354 69.5634 23.2656C70.1832 22.8958 70.9098 22.7109 71.7431 22.7109C72.5817 22.7109 73.3056 22.8906 73.915 23.25C74.5244 23.6094 74.9931 24.112 75.3213 24.7578C75.6494 25.4036 75.8134 26.1615 75.8134 27.0312V27.7422H68.7744V26.3125H74.7197L73.6494 27.6641V26.75C73.6494 26.2344 73.5686 25.8047 73.4072 25.4609C73.2509 25.1172 73.0322 24.8594 72.7509 24.6875C72.4749 24.5104 72.152 24.4219 71.7822 24.4219C71.4176 24.4219 71.0921 24.513 70.8056 24.6953C70.5244 24.8724 70.3004 25.1354 70.1338 25.4844C69.9723 25.8281 69.8916 26.25 69.8916 26.75V27.6719C69.8916 28.1562 69.9723 28.5703 70.1338 28.9141C70.2952 29.2578 70.5244 29.5208 70.8213 29.7031C71.1181 29.8854 71.4723 29.9766 71.8838 29.9766C72.2171 29.9766 72.5009 29.9271 72.7353 29.8281C72.9697 29.7292 73.1572 29.6146 73.2978 29.4844C73.4436 29.349 73.5426 29.2266 73.5947 29.1172L73.6181 29.0703H75.7431L75.7275 29.1484C75.6598 29.4193 75.5374 29.7031 75.3603 30C75.1832 30.2917 74.9384 30.5651 74.6259 30.8203C74.3186 31.0755 73.9332 31.2839 73.4697 31.4453C73.0114 31.6016 72.4671 31.6797 71.8369 31.6797ZM81.2297 31.6797C80.3339 31.6797 79.5708 31.5052 78.9406 31.1562C78.3156 30.8021 77.8391 30.2917 77.5109 29.625C77.1828 28.9531 77.0187 28.1406 77.0187 27.1875V27.1719C77.0187 26.224 77.1828 25.4193 77.5109 24.7578C77.8391 24.0964 78.3156 23.5911 78.9406 23.2422C79.5708 22.888 80.3339 22.7109 81.2297 22.7109C81.9901 22.7109 82.6437 22.8411 83.1906 23.1016C83.7375 23.362 84.1698 23.7292 84.4875 24.2031C84.8052 24.6771 84.9979 25.2344 85.0656 25.875V25.8984H82.9484L82.9406 25.8828C82.8625 25.4661 82.6802 25.1328 82.3937 24.8828C82.1125 24.6276 81.7271 24.5 81.2375 24.5C80.8312 24.5 80.4849 24.6042 80.1984 24.8125C79.9172 25.0156 79.7036 25.3151 79.5578 25.7109C79.412 26.1068 79.3391 26.5938 79.3391 27.1719V27.1875C79.3391 27.7656 79.412 28.2578 79.5578 28.6641C79.7089 29.0651 79.925 29.3698 80.2062 29.5781C80.4875 29.7865 80.8312 29.8906 81.2375 29.8906C81.7062 29.8906 82.0812 29.7812 82.3625 29.5625C82.6437 29.3438 82.8339 29.0156 82.9328 28.5781L82.9484 28.5547L85.0578 28.5469V28.6016C84.9745 29.2214 84.774 29.763 84.4562 30.2266C84.1385 30.6901 83.7089 31.0495 83.1672 31.3047C82.6255 31.5547 81.9797 31.6797 81.2297 31.6797ZM90.2553 31.5312C89.2136 31.5312 88.4636 31.349 88.0053 30.9844C87.547 30.6146 87.3178 30.013 87.3178 29.1797V24.6172H85.9897V22.8984H87.3178V20.8438H89.6225V22.8984H91.3959V24.6172H89.6225V28.6562C89.6225 29.0417 89.7084 29.3255 89.8803 29.5078C90.0574 29.6849 90.3386 29.7734 90.7241 29.7734C90.8699 29.7734 90.9897 29.7708 91.0834 29.7656C91.1824 29.7552 91.2866 29.7448 91.3959 29.7344V31.4297C91.2553 31.4557 91.086 31.4792 90.8881 31.5C90.6902 31.5208 90.4793 31.5312 90.2553 31.5312ZM98.5722 31.5L96.2753 22.8984H98.58L99.8613 29.125H100.002L101.51 22.8984H103.682L105.197 29.125H105.338L106.619 22.8984H108.877L106.588 31.5H104.166L102.627 25.5H102.486L100.963 31.5H98.5722ZM112.371 31.6328C111.83 31.6328 111.345 31.5286 110.918 31.3203C110.496 31.1068 110.166 30.8073 109.926 30.4219C109.686 30.0312 109.567 29.5755 109.567 29.0547V29.0391C109.567 28.263 109.856 27.6562 110.434 27.2188C111.012 26.776 111.835 26.5234 112.902 26.4609L116.106 26.2656V27.6562L113.246 27.8438C112.757 27.8698 112.392 27.974 112.152 28.1562C111.913 28.3385 111.793 28.5859 111.793 28.8984V28.9141C111.793 29.2422 111.918 29.5 112.168 29.6875C112.418 29.875 112.741 29.9688 113.137 29.9688C113.491 29.9688 113.806 29.8984 114.082 29.7578C114.358 29.6172 114.577 29.4271 114.738 29.1875C114.9 28.9427 114.981 28.6693 114.981 28.3672V25.625C114.981 25.25 114.856 24.9635 114.606 24.7656C114.361 24.5625 114.004 24.4609 113.535 24.4609C113.124 24.4609 112.788 24.5312 112.527 24.6719C112.272 24.8073 112.1 25.0026 112.012 25.2578L111.996 25.2891H109.887L109.895 25.2188C109.957 24.7135 110.147 24.2734 110.465 23.8984C110.788 23.5234 111.22 23.2318 111.762 23.0234C112.309 22.8151 112.942 22.7109 113.66 22.7109C114.421 22.7109 115.067 22.8281 115.598 23.0625C116.129 23.2917 116.533 23.625 116.809 24.0625C117.09 24.4948 117.231 25.0156 117.231 25.625V31.5H114.981V30.3594H114.84C114.694 30.625 114.499 30.8542 114.254 31.0469C114.014 31.2344 113.733 31.3802 113.41 31.4844C113.093 31.5833 112.746 31.6328 112.371 31.6328ZM119.303 31.5V19.6094H121.584V31.5H119.303ZM123.782 31.5V19.6094H126.063V31.5H123.782ZM131.964 31.6797C131.094 31.6797 130.344 31.5 129.714 31.1406C129.089 30.776 128.607 30.2604 128.268 29.5938C127.93 28.9271 127.761 28.1328 127.761 27.2109V27.2031C127.761 26.2917 127.927 25.5 128.261 24.8281C128.599 24.1562 129.076 23.6354 129.69 23.2656C130.31 22.8958 131.037 22.7109 131.87 22.7109C132.709 22.7109 133.433 22.8906 134.042 23.25C134.651 23.6094 135.12 24.112 135.448 24.7578C135.776 25.4036 135.94 26.1615 135.94 27.0312V27.7422H128.901V26.3125H134.847L133.776 27.6641V26.75C133.776 26.2344 133.696 25.8047 133.534 25.4609C133.378 25.1172 133.159 24.8594 132.878 24.6875C132.602 24.5104 132.279 24.4219 131.909 24.4219C131.544 24.4219 131.219 24.513 130.933 24.6953C130.651 24.8724 130.427 25.1354 130.261 25.4844C130.099 25.8281 130.018 26.25 130.018 26.75V27.6719C130.018 28.1562 130.099 28.5703 130.261 28.9141C130.422 29.2578 130.651 29.5208 130.948 29.7031C131.245 29.8854 131.599 29.9766 132.011 29.9766C132.344 29.9766 132.628 29.9271 132.862 29.8281C133.097 29.7292 133.284 29.6146 133.425 29.4844C133.571 29.349 133.669 29.2266 133.722 29.1172L133.745 29.0703H135.87L135.854 29.1484C135.787 29.4193 135.664 29.7031 135.487 30C135.31 30.2917 135.065 30.5651 134.753 30.8203C134.446 31.0755 134.06 31.2839 133.597 31.4453C133.138 31.6016 132.594 31.6797 131.964 31.6797ZM141.138 31.5312C140.096 31.5312 139.346 31.349 138.888 30.9844C138.429 30.6146 138.2 30.013 138.2 29.1797V24.6172H136.872V22.8984H138.2V20.8438H140.505V22.8984H142.278V24.6172H140.505V28.6562C140.505 29.0417 140.591 29.3255 140.763 29.5078C140.94 29.6849 141.221 29.7734 141.607 29.7734C141.752 29.7734 141.872 29.7708 141.966 29.7656C142.065 29.7552 142.169 29.7448 142.278 29.7344V31.4297C142.138 31.4557 141.969 31.4792 141.771 31.5C141.573 31.5208 141.362 31.5312 141.138 31.5312Z" fill="white"/>
</svg>
