<svg viewBox="0 0 178 41" fill="none" xmlns="http://www.w3.org/2000/svg">
<path d="M15.1054 4.31578H8.63173L1.0791 14.0263H11.8686L15.1054 4.31578Z" fill="#BDDDF4"/>
<path d="M39.9208 14.0263L32.3682 4.31578H25.8945L29.1314 14.0263H39.9208Z" fill="#5DADEC"/>
<path d="M29.1316 14.0263H39.9211L20.5 36.6842L29.1316 14.0263Z" fill="#4289C1"/>
<path d="M11.8686 14.0263H1.0791L20.5002 36.6842L11.8686 14.0263Z" fill="#8CCAF7"/>
<path d="M15.105 4.31578L11.8682 14.0263H29.1313L25.8945 4.31578H15.105Z" fill="#8CCAF7"/>
<path d="M20.4997 36.6842L11.8682 14.0263H29.1313L20.4997 36.6842Z" fill="#5DADEC"/>
<path d="M58.1921 29.5V11.5444H69.8016V14.2446H61.39V19.085H69.3412V21.6732H61.39V26.7998H69.8016V29.5H58.1921ZM76.8882 29.5V14.2446H71.5003V11.5444H85.4741V14.2446H80.0986V29.5H76.8882ZM87.5461 29.5V11.5444H90.744V19.0104H99.4792V11.5444H102.69V29.5H99.4792V21.7105H90.744V29.5H87.5461ZM105.757 29.5V11.5444H112.339C114.123 11.5444 115.649 11.8928 116.919 12.5897C118.188 13.2865 119.158 14.2985 119.83 15.6258C120.511 16.9531 120.851 18.5624 120.851 20.4538V20.4787C120.851 22.37 120.515 23.9918 119.843 25.344C119.171 26.6878 118.2 27.7165 116.931 28.4299C115.662 29.1433 114.131 29.5 112.339 29.5H105.757ZM108.955 26.7998H111.991C113.194 26.7998 114.21 26.5593 115.04 26.0781C115.877 25.5887 116.512 24.8753 116.943 23.9379C117.375 23.0005 117.591 21.8516 117.591 20.4911V20.4662C117.591 19.1307 117.371 18.0025 116.931 17.0817C116.491 16.1526 115.853 15.4475 115.015 14.9663C114.185 14.4852 113.177 14.2446 111.991 14.2446H108.955V26.7998ZM122.972 29.5V16.2604H126.071V18.5126H126.158C126.365 17.7246 126.734 17.1107 127.265 16.671C127.805 16.2231 128.46 15.9991 129.231 15.9991C129.43 15.9991 129.617 16.0116 129.791 16.0364C129.974 16.0613 130.127 16.0904 130.252 16.1235V18.9233C130.111 18.8652 129.924 18.8237 129.692 18.7988C129.468 18.7657 129.223 18.7491 128.958 18.7491C128.36 18.7491 127.846 18.8693 127.415 19.1099C126.983 19.3505 126.651 19.6989 126.419 20.1551C126.187 20.6114 126.071 21.163 126.071 21.8101V29.5H122.972ZM137.052 29.7613C135.75 29.7613 134.617 29.4876 133.655 28.9401C132.701 28.3843 131.959 27.592 131.428 26.5634C130.905 25.5348 130.644 24.307 130.644 22.8802V22.8553C130.644 21.4368 130.909 20.2174 131.44 19.197C131.971 18.1684 132.718 17.3803 133.68 16.8328C134.642 16.277 135.762 15.9991 137.04 15.9991C138.334 15.9991 139.458 16.277 140.412 16.8328C141.374 17.3803 142.121 18.1684 142.652 19.197C143.183 20.2174 143.448 21.4368 143.448 22.8553V22.8802C143.448 24.3153 143.183 25.5472 142.652 26.5758C142.129 27.5962 141.391 28.3843 140.437 28.9401C139.483 29.4876 138.355 29.7613 137.052 29.7613ZM137.065 27.2602C137.728 27.2602 138.301 27.0902 138.782 26.75C139.263 26.4016 139.636 25.9039 139.902 25.2569C140.167 24.6015 140.3 23.8093 140.3 22.8802V22.8553C140.3 21.9345 140.163 21.1506 139.889 20.5036C139.624 19.8565 139.246 19.3629 138.757 19.0228C138.276 18.6744 137.703 18.5002 137.04 18.5002C136.393 18.5002 135.824 18.6744 135.335 19.0228C134.846 19.3629 134.468 19.8565 134.203 20.5036C133.937 21.1506 133.805 21.9345 133.805 22.8553V22.8802C133.805 23.8093 133.937 24.6015 134.203 25.2569C134.468 25.9039 134.846 26.4016 135.335 26.75C135.824 27.0902 136.401 27.2602 137.065 27.2602ZM145.309 33.88V16.2604H148.407V18.5251H148.494C148.751 18.0025 149.079 17.5545 149.477 17.1812C149.875 16.7996 150.336 16.5093 150.858 16.3102C151.381 16.1028 151.957 15.9991 152.588 15.9991C153.708 15.9991 154.678 16.277 155.5 16.8328C156.321 17.3886 156.951 18.1808 157.391 19.2095C157.839 20.2381 158.063 21.4617 158.063 22.8802V22.8927C158.063 24.3029 157.839 25.5223 157.391 26.551C156.951 27.5796 156.325 28.3718 155.512 28.9276C154.699 29.4834 153.737 29.7613 152.625 29.7613C152.003 29.7613 151.422 29.6618 150.883 29.4627C150.352 29.2553 149.883 28.9691 149.477 28.6041C149.071 28.2308 148.743 27.787 148.494 27.2727H148.407V33.88H145.309ZM151.667 27.1482C152.331 27.1482 152.907 26.9782 153.397 26.6381C153.886 26.2896 154.259 25.7961 154.516 25.1573C154.782 24.5186 154.915 23.7637 154.915 22.8927V22.8802C154.915 21.9926 154.782 21.2294 154.516 20.5907C154.251 19.9519 153.874 19.4625 153.384 19.1224C152.903 18.7822 152.331 18.6122 151.667 18.6122C151.02 18.6122 150.448 18.7864 149.95 19.1348C149.46 19.4832 149.079 19.9768 148.805 20.6155C148.531 21.2543 148.394 22.0092 148.394 22.8802V22.8927C148.394 23.7554 148.531 24.5061 148.805 25.1449C149.087 25.7836 149.473 26.2772 149.962 26.6256C150.452 26.974 151.02 27.1482 151.667 27.1482ZM160.023 29.5V16.2604H163.121V29.5H160.023ZM161.578 14.3317C161.097 14.3317 160.687 14.1658 160.346 13.834C160.006 13.4939 159.836 13.0874 159.836 12.6146C159.836 12.1417 160.006 11.7394 160.346 11.4076C160.687 11.0757 161.097 10.9098 161.578 10.9098C162.068 10.9098 162.478 11.0757 162.81 11.4076C163.15 11.7394 163.32 12.1417 163.32 12.6146C163.32 13.0874 163.15 13.4939 162.81 13.834C162.478 14.1658 162.068 14.3317 161.578 14.3317ZM171.477 29.7613C170.175 29.7613 169.042 29.4876 168.08 28.9401C167.126 28.3843 166.384 27.592 165.853 26.5634C165.33 25.5348 165.069 24.307 165.069 22.8802V22.8553C165.069 21.4368 165.334 20.2174 165.865 19.197C166.396 18.1684 167.143 17.3803 168.105 16.8328C169.067 16.277 170.187 15.9991 171.465 15.9991C172.759 15.9991 173.883 16.277 174.837 16.8328C175.799 17.3803 176.546 18.1684 177.077 19.197C177.607 20.2174 177.873 21.4368 177.873 22.8553V22.8802C177.873 24.3153 177.607 25.5472 177.077 26.5758C176.554 27.5962 175.816 28.3843 174.862 28.9401C173.908 29.4876 172.779 29.7613 171.477 29.7613ZM171.49 27.2602C172.153 27.2602 172.726 27.0902 173.207 26.75C173.688 26.4016 174.061 25.9039 174.327 25.2569C174.592 24.6015 174.725 23.8093 174.725 22.8802V22.8553C174.725 21.9345 174.588 21.1506 174.314 20.5036C174.049 19.8565 173.671 19.3629 173.182 19.0228C172.701 18.6744 172.128 18.5002 171.465 18.5002C170.818 18.5002 170.249 18.6744 169.76 19.0228C169.271 19.3629 168.893 19.8565 168.628 20.5036C168.362 21.1506 168.229 21.9345 168.229 22.8553V22.8802C168.229 23.8093 168.362 24.6015 168.628 25.2569C168.893 25.9039 169.271 26.4016 169.76 26.75C170.249 27.0902 170.826 27.2602 171.49 27.2602Z" fill="white"/>
</svg>
